# xmcd
#
# Track frame offsets: 
#        150
#        15287
#        28683
#        49510
#        65104
#        76839
#        94102
#        110519
#        125594
#        144590
#        160736
#
# Disc length: 2381 seconds
#
# Revision: 0
# Processed by: cddbd v1.5.2PL0 Copyright (c) Steve Scherf et al.
# Submitted via: ExactAudioCopy v1.3
#
DISCID=87094b0b
DTITLE=Blå Poker - Mellom Natt Og Dag
DYEAR=2005
DGENRE=Blues
TTITLE0=Levva no
TTITLE1=Så på mæ
TTITLE2=Sangen om Kjellis
TTITLE3=Angst
TTITLE4=Ute med Anne
TTITLE5=Du e som vinden
TTITLE6=Te min siste dag
TTITLE7=Karriere som klovn
TTITLE8=Motbakkeblues
TTITLE9=Savne dæ
TTITLE10=Når frosten kjæm
EXTD=
EXTT0=
EXTT1=
EXTT2=
EXTT3=
EXTT4=
EXTT5=
EXTT6=
EXTT7=
EXTT8=
EXTT9=
EXTT10=
PLAYORDER=
